HIERARCHY
ROOT WRIST
{
	OFFSET 0.000000 0.000000 0.000000
	CHANNELS 6 Xposition Yposition Zposition Yrotation Xrotation Zrotation
	JOINT THUMB_CMC_FE
	{
		OFFSET 0.225143 0.117753 -0.062308
		CHANNELS 3 Yrotation Xrotation Zrotation
		JOINT THUMB_CMC_AA
		{
			OFFSET 0.212856 -0.150507 0.098851
			CHANNELS 3 Yrotation Xrotation Zrotation
			JOINT THUMB_MCP_FE
			{
				OFFSET -0.322503 -0.167445 -0.031436
				CHANNELS 3 Yrotation Xrotation Zrotation
				JOINT THUMB_IP_FE
				{
					OFFSET 0.295233 -0.236404 0.025845
					CHANNELS 3 Yrotation Xrotation Zrotation
					End Site
					{
						OFFSET 0.000000 0.000000 0.000000
					}
				}
			}
		}
	}
	JOINT INDEX_MCP
	{
		OFFSET 1.076913 0.264198 -0.014768
		CHANNELS 3 Yrotation Xrotation Zrotation
		JOINT INDEX_PIP_FE
		{
			OFFSET 0.425053 0.013289 0.013619
			CHANNELS 3 Yrotation Xrotation Zrotation
			JOINT INDEX_DIP_FE
			{
				OFFSET 0.271505 -0.024898 0.000550
				CHANNELS 3 Yrotation Xrotation Zrotation
				End Site
				{
					OFFSET 0.000000 0.000000 0.000000
				}
			}
		}
	}
	JOINT MIDDLE_MCP
	{
		OFFSET 1.072991 0.019362 0.038780
		CHANNELS 3 Yrotation Xrotation Zrotation
		JOINT MIDDLE_PIP_FE
		{
			OFFSET 0.480704 0.002618 0.028696
			CHANNELS 3 Yrotation Xrotation Zrotation
			JOINT MIDDLE_DIP_FE
			{
				OFFSET 0.307486 -0.031129 -0.000643
				CHANNELS 3 Yrotation Xrotation Zrotation
				End Site
				{
					OFFSET 0.000000 0.000000 0.000000
				}
			}
		}
	}
	JOINT RING_MCP
	{
		OFFSET 0.994992 -0.195930 -0.005938
		CHANNELS 3 Yrotation Xrotation Zrotation
		JOINT RING_PIP_FE
		{
			OFFSET 0.436995 0.003792 0.019994
			CHANNELS 3 Yrotation Xrotation Zrotation
			JOINT RING_DIP_FE
			{
				OFFSET 0.295558 -0.038341 -0.006642
				CHANNELS 3 Yrotation Xrotation Zrotation
				End Site
				{
					OFFSET 0.000000 0.000000 0.000000
				}
			}
		}
	}
	JOINT PINKY_MCP
	{
		OFFSET 0.873858 -0.393246 -0.086282
		CHANNELS 3 Yrotation Xrotation Zrotation
		JOINT PINKY_PIP_FE
		{
			OFFSET 0.343972 -0.016492 0.013445
			CHANNELS 3 Yrotation Xrotation Zrotation
			JOINT PINKY_DIP_FE
			{
				OFFSET 0.224713 -0.036309 -0.010265
				CHANNELS 3 Yrotation Xrotation Zrotation
				End Site
				{
					OFFSET 0.000000 0.000000 0.000000
				}
			}
		}
	}
}
MOTION
Frames: 7
Frame Time: 0.008333334
3.945906 3.356191 6.910721 97.576800 -68.203340 -16.462770 61.461190 4.834461 71.369890 119.352900 -30.976930 8.953605 -112.863900 -65.843230 -64.063140 4.562086 -8.459839 -25.760280 -151.116600 2.915795 177.260700 -41.978210 -86.125610 44.636960 -2.052612 1.705007 -34.008670 -176.626100 -1.097992 -170.246700 -39.241150 -88.411320 37.796850 -6.002502 4.395454 -3.604889 161.553300 -0.769104 -164.549200 -31.479550 -85.617800 -0.171143 0.199300 0.562925 4.968517 153.827700 -3.580963 -157.097200 -48.977570 -83.530580 26.073920 5.539802 0.809205 -8.914886 
3.944563 3.352108 6.910379 97.148210 -68.133700 -16.066930 61.461190 4.834465 71.510290 119.352900 -30.976930 9.171058 -112.863900 -65.843260 -64.452480 4.562083 -8.459869 -26.213650 -151.116700 2.915797 177.261900 -41.978240 -86.125550 44.637020 -2.052612 1.704986 -34.008670 -176.682300 -1.092499 -170.144800 -39.241030 -88.411320 37.106020 -6.002533 4.395446 -3.344513 161.553300 -0.769104 -164.436800 -31.479580 -85.617800 -0.651398 0.199308 0.562933 4.968521 154.012000 -3.655518 -157.099000 -48.977600 -83.530610 26.065220 5.539801 0.809185 -8.877014 
3.942298 3.348608 6.909917 96.738950 -68.002110 -15.740260 61.461190 4.834463 71.418900 119.352900 -30.976960 9.063759 -112.864000 -65.843200 -64.239070 4.562073 -8.459839 -26.819460 -151.118700 2.915867 177.262100 -41.978150 -86.125700 44.637160 -2.052612 1.704988 -34.008700 -176.685000 -1.092255 -169.995900 -39.240420 -88.411320 36.457900 -6.002533 4.395464 -2.781006 161.553300 -0.769104 -164.337700 -31.479490 -85.617800 -1.212433 0.199306 0.562938 4.968518 154.260100 -3.755798 -157.104600 -48.977510 -83.530640 26.334080 5.539808 0.809180 -8.331848 
3.940278 3.345234 6.909605 96.318650 -67.786250 -15.408420 61.461200 4.834463 71.262160 119.352900 -30.976930 9.025742 -112.863900 -65.843200 -63.920930 4.562082 -8.459869 -26.928310 -151.119800 2.915896 177.263500 -41.978360 -86.125700 44.637780 -2.052643 1.704998 -34.008670 -176.492000 -1.111115 -169.912200 -39.240230 -88.411320 36.466690 -6.002533 4.395444 -2.690094 161.553300 -0.769104 -164.278900 -31.479550 -85.617860 -1.588013 0.199319 0.562930 4.968513 154.205100 -3.733582 -157.065000 -48.977510 -83.530580 26.082220 5.539801 0.809183 -8.184021 
3.937388 3.341417 6.909213 95.835440 -67.553100 -15.061550 61.461190 4.834475 71.211260 119.352900 -30.976930 9.008074 -112.863900 -65.843260 -63.645260 4.562103 -8.459839 -27.855320 -151.121700 2.915951 177.263700 -41.978270 -86.125610 44.638090 -2.052612 1.704993 -34.008670 -176.164600 -1.143066 -169.874900 -39.240910 -88.411190 36.947060 -6.002502 4.395440 -3.188568 161.553300 -0.769104 -164.288100 -31.479490 -85.617800 -2.001587 0.199307 0.562935 4.968523 154.260100 -3.755829 -156.909300 -48.977570 -83.530640 25.655680 5.539807 0.809179 -7.001282 
3.934848 3.337122 6.909314 95.403690 -67.363590 -14.748050 61.461190 4.834463 71.268840 119.352900 -30.976930 8.986144 -112.863900 -65.843230 -63.426730 4.562081 -8.459869 -28.944460 -151.122200 2.915983 177.264500 -41.978090 -86.125610 44.637950 -2.052612 1.704998 -34.008670 -176.008100 -1.158325 -169.806000 -39.240660 -88.411560 37.030260 -6.002533 4.395449 -3.514374 161.553300 -0.769104 -164.115100 -31.479400 -85.617740 -2.748291 0.199298 0.562923 4.968524 154.328100 -3.783295 -156.840600 -48.977540 -83.530640 25.275550 5.539796 0.809175 -6.839417 
3.932247 3.333764 6.909252 95.039720 -67.057980 -14.538790 61.461180 4.834484 71.291120 119.352900 -30.976930 8.999957 -112.863900 -65.843230 -63.331970 4.562100 -8.459839 -29.896480 -151.124900 2.916074 177.264900 -41.978090 -86.125610 44.638530 -2.052612 1.704995 -34.008670 -175.873100 -1.171478 -169.761000 -39.240660 -88.411190 37.276470 -6.002502 4.395454 -3.567841 161.553300 -0.769104 -164.061400 -31.479430 -85.617800 -3.081299 0.199301 0.562927 4.968528 154.284500 -3.765656 -156.908700 -48.977450 -83.530610 25.101920 5.539796 0.809184 -7.197601 
